<svg width="21" height="15" viewBox="0 0 21 15" fill="none" xmlns="http://www.w3.org/2000/svg">
<g id="Wifi">
<path id="Wifi_2" fill-rule="evenodd" clip-rule="evenodd" d="M10.3338 3.57394C12.5586 3.57403 14.6982 4.41173 16.3106 5.91388C16.432 6.02985 16.6261 6.02839 16.7457 5.9106L17.9063 4.76277C17.9668 4.70302 18.0006 4.6221 18.0001 4.5379C17.9996 4.4537 17.9649 4.37317 17.9036 4.31413C13.6717 0.33979 6.99533 0.33979 2.7634 4.31413C2.7021 4.37313 2.66732 4.45363 2.66676 4.53783C2.66619 4.62203 2.69989 4.70298 2.76039 4.76277L3.92134 5.9106C4.04084 6.02856 4.23506 6.03003 4.3564 5.91388C5.96897 4.41163 8.10888 3.57393 10.3338 3.57394ZM10.3322 7.29949C11.556 7.29942 12.736 7.75602 13.6431 8.58058C13.7658 8.6976 13.9591 8.69507 14.0787 8.57486L15.2392 7.3977C15.3004 7.33596 15.3343 7.25219 15.3334 7.16515C15.3325 7.07811 15.2969 6.99506 15.2346 6.93457C12.4723 4.3552 8.19453 4.3552 5.43224 6.93457C5.36985 6.99506 5.33425 7.07815 5.33343 7.16522C5.33261 7.25229 5.36664 7.33604 5.42789 7.3977L6.58814 8.57486C6.70774 8.69507 6.901 8.6976 7.02369 8.58058C7.93019 7.75656 9.10931 7.3 10.3322 7.29949ZM12.6667 10.0231C12.6685 10.1085 12.6342 10.1909 12.5719 10.2508L10.5571 12.2419C10.498 12.3004 10.4175 12.3334 10.3335 12.3334C10.2495 12.3334 10.169 12.3004 10.1099 12.2419L8.0948 10.2508C8.03255 10.1909 7.99831 10.1085 8.00015 10.023C8.002 9.93756 8.03977 9.85664 8.10455 9.79935C9.39126 8.7336 11.2757 8.7336 12.5625 9.79935C12.6272 9.85668 12.6649 9.93763 12.6667 10.0231Z" fill="#1D2749"/>
</g>
</svg>
