<svg width="24" height="25" viewBox="0 0 24 25" fill="none" xmlns="http://www.w3.org/2000/svg">
<g id="Utilities/Add">
<g id="Vector">
<path fill-rule="evenodd" clip-rule="evenodd" d="M2.25 12.5C2.25 12.0858 2.58579 11.75 3 11.75L21 11.75C21.4142 11.75 21.75 12.0858 21.75 12.5C21.75 12.9142 21.4142 13.25 21 13.25L3 13.25C2.58579 13.25 2.25 12.9142 2.25 12.5Z" stroke="#8B79EE" stroke-width="2" stroke-miterlimit="10" stroke-linecap="round" stroke-linejoin="round"/>
<path fill-rule="evenodd" clip-rule="evenodd" d="M12 2.75C12.4142 2.75 12.75 3.08579 12.75 3.5L12.75 21.5C12.75 21.9142 12.4142 22.25 12 22.25C11.5858 22.25 11.25 21.9142 11.25 21.5L11.25 3.5C11.25 3.08579 11.5858 2.75 12 2.75Z" stroke="#8B79EE" stroke-width="2" stroke-miterlimit="10" stroke-linecap="round" stroke-linejoin="round"/>
</g>
</g>
</svg>
