<svg width="40" height="40" viewBox="0 0 40 40" fill="none" xmlns="http://www.w3.org/2000/svg">
<g id="main-screen / new-cards / icons / product / credit">
<rect width="40" height="40" rx="20" fill="#F4F6F7"/>
<path id="credit" fill-rule="evenodd" clip-rule="evenodd" d="M13 29H27C28.1046 29 29 28.1046 29 27V13C29 11.8954 28.1046 11 27 11H13C11.8954 11 11 11.8954 11 13V14V26V27C11 28.1046 11.8954 29 13 29ZM16.5 15C15.6716 15 15 15.6716 15 16.5C15 17.3284 15.6716 18 16.5 18C17.3284 18 18 17.3284 18 16.5C18 15.6716 17.3284 15 16.5 15ZM23.5 22C22.6716 22 22 22.6716 22 23.5C22 24.3284 22.6716 25 23.5 25C24.3284 25 25 24.3284 25 23.5C25 22.6716 24.3284 22 23.5 22ZM24.7071 16.7071L16.7071 24.7071L15.2929 23.2929L23.2929 15.2929L24.7071 16.7071Z" fill="#A7B1BA"/>
</g>
</svg>
