<svg width="8" height="9" viewBox="0 0 8 9" fill="none" xmlns="http://www.w3.org/2000/svg">
<g clip-path="url(#clip0_3858_719)">
<path d="M7.97886 3.37201C7.95372 3.29796 7.90744 3.2329 7.84574 3.18485C7.78403 3.13681 7.70961 3.10788 7.63166 3.10164L5.35124 2.92047L4.36444 0.736356C4.33301 0.66601 4.28189 0.606262 4.21725 0.564322C4.15262 0.522382 4.07722 0.500042 4.00016 0.5C3.92311 0.499958 3.84769 0.522214 3.783 0.564083C3.71832 0.605952 3.66714 0.665645 3.63563 0.735956L2.64883 2.92047L0.368413 3.10164C0.291794 3.10771 0.218547 3.13572 0.157433 3.18232C0.0963199 3.22893 0.049928 3.29215 0.0238079 3.36442C-0.00231216 3.43669 -0.00705442 3.51496 0.0101485 3.58986C0.0273515 3.66476 0.0657712 3.73311 0.120811 3.78675L1.80602 5.42933L1.21002 8.00979C1.19192 8.0879 1.19772 8.16965 1.22667 8.24442C1.25561 8.31919 1.30636 8.38354 1.37234 8.42911C1.43831 8.47468 1.51647 8.49938 1.59665 8.49999C1.67684 8.5006 1.75536 8.4771 1.82202 8.43254L4.00003 6.98073L6.17805 8.43254C6.24618 8.47777 6.32654 8.50105 6.4083 8.49926C6.49007 8.49747 6.56932 8.47068 6.63541 8.42251C6.70149 8.37433 6.75124 8.30708 6.77796 8.22979C6.80467 8.1525 6.80708 8.06889 6.78485 7.99019L6.05325 5.43053L7.86766 3.79795C7.98646 3.69076 8.03006 3.52359 7.97886 3.37201Z" fill="#282B2E"/>
</g>
<defs>
<clipPath id="clip0_3858_719">
<rect width="8" height="8" fill="white" transform="translate(0 0.5)"/>
</clipPath>
</defs>
</svg>
