<svg width="32" height="32" viewBox="0 0 32 32" fill="none" xmlns="http://www.w3.org/2000/svg">
<g id="tabbars / normal / chat">
<path id="chat" d="M16.9844 22H17.9844V21H16.9844H16.9843H16.9843H16.9843H16.9842H16.9841H16.9841H16.984H16.9838H16.9837H16.9836H16.9834H16.9833H16.9831H16.9829H16.9827H16.9825H16.9823H16.982H16.9818H16.9815H16.9812H16.9809H16.9806H16.9803H16.98H16.9796H16.9793H16.9789H16.9786H16.9782H16.9778H16.9773H16.9769H16.9765H16.976H16.9756H16.9751H16.9746H16.9741H16.9736H16.9731H16.9725H16.972H16.9714H16.9709H16.9703H16.9697H16.9691H16.9685H16.9679H16.9672H16.9666H16.9659H16.9652H16.9645H16.9639H16.9631H16.9624H16.9617H16.961H16.9602H16.9594H16.9587H16.9579H16.9571H16.9563H16.9554H16.9546H16.9538H16.9529H16.9521H16.9512H16.9503H16.9494H16.9485H16.9476H16.9467H16.9457H16.9448H16.9438H16.9428H16.9419H16.9409H16.9399H16.9389H16.9378H16.9368H16.9358H16.9347H16.9336H16.9326H16.9315H16.9304H16.9293H16.9282H16.9271H16.9259H16.9248H16.9236H16.9225H16.9213H16.9201H16.9189H16.9177H16.9165H16.9153H16.914H16.9128H16.9115H16.9103H16.909H16.9077H16.9064H16.9051H16.9038H16.9025H16.9012H16.8999H16.8985H16.8972H16.8958H16.8944H16.893H16.8916H16.8902H16.8888H16.8874H16.886H16.8846H16.8831H16.8817H16.8802H16.8787H16.8772H16.8758H16.8743H16.8728H16.8712H16.8697H16.8682H16.8666H16.8651H16.8635H16.862H16.8604H16.8588H16.8572H16.8556H16.854H16.8524H16.8508H16.8491H16.8475H16.8459H16.8442H16.8425H16.8409H16.8392H16.8375H16.8358H16.8341H16.8324H16.8307H16.8289H16.8272H16.8255H16.8237H16.822H16.8202H16.8184H16.8166H16.8149H16.8131H16.8113H16.8094H16.8076H16.8058H16.804H16.8021H16.8003H16.7984H16.7966H16.7947H16.7928H16.7909H16.7891H16.7872H16.7853H16.7834H16.7814H16.7795H16.7776H16.7756H16.7737H16.7718H16.7698H16.7678H16.7659H16.7639H16.7619H16.7599H16.7579H16.7559H16.7539H16.7519H16.7499H16.7478H16.7458H16.7438H16.7417H16.7397H16.7376H16.7356H16.7335H16.7314H16.7293H16.7272H16.7251H16.723H16.7209H16.7188H16.7167H16.7146H16.7125H16.7103H16.7082H16.706H16.7039H16.7017H16.6996H16.6974H16.6952H16.693H16.6909H16.6887H16.6865H16.6843H16.6821H16.6799H16.6776H16.6754H16.6732H16.671H16.6687H16.6665H16.6642H16.662H16.6597H16.6575H16.6552H16.6529H16.6507H16.6484H16.6461H16.6438H16.6415H16.6392H16.6369H16.6346H16.6323H16.63H16.6276H16.6253H16.623H16.6207H16.6183H16.616H16.6136H16.6113H16.6089H16.6066H16.6042H16.6018H16.5995H16.5971H16.5947H16.5923H16.5899H16.5875H16.5851H16.5828H16.5803H16.5779H16.5755H16.5731H16.5707H16.5683H16.5659H16.5634H16.561H16.5586H16.5561H16.5537H16.5512H16.5488H16.5463H16.5439H16.5414H16.539H16.5365H16.534H16.5316H16.5291H16.5266H16.5241H16.5217H16.5192H16.5167H16.5142H16.5117H16.5092H16.5067H16.5042H16.5017H16.4992H16.4967H16.4942H16.4916H16.4891H16.4866H16.4841H16.4816H16.479H16.4765H16.474H16.4714H16.4689H16.4664H16.4638H16.4613H16.4587H16.4562H16.4536H16.4511H16.4485H16.446H16.4434H16.4409H16.4383H16.4358H16.4332H16.4306H16.4281H16.4255H16.4229H16.4203H16.4178H16.4152H16.4126H16.41H16.4075H16.4049H16.4023H16.3997H16.3971H16.3945H16.392H16.3894H16.3868H16.3842H16.3816H16.379H16.3764H16.3738H16.3712H16.3686H16.366H16.3634H16.3608H16.3582H16.3556H16.353H16.3504H16.3478H16.3452H16.3426H16.34H16.3374H16.3348H16.3322H16.3296H16.327H16.3244H16.3218H16.3192H16.3165H16.3139H16.3113H16.3087H16.3061H16.3035H16.3009H16.2983H16.2957H16.2931H16.2905H16.2879H16.2852H16.2826H16.28H16.2774H16.2748H16.2722H16.2696H16.267H16.2644H16.2618H16.2592H16.2566H16.254H16.2514H16.2488H16.2462H16.2436H16.241H16.2384H16.2358H16.2332H16.2306H16.228H16.2254H16.2228H16.2202H16.2176H16.215H16.2124H16.2098H16.2073H16.2047H16.2021H16.1995H16.1969H16.1943H16.1918H16.1892H16.1866H16.184H16.1815H16.1789H16.1763H16.1737H16.1712H16.1686H16.1661H16.1635H16.1609H16.1584H16.1558H16.1533H16.1507H16.1482H16.1456H16.1431H16.1405H16.138H16.1354H16.1329H16.1304H16.1278H16.1253H16.1228H16.1202H16.1177H16.1152H16.1127H16.1102H16.1076H16.1051H16.1026H16.1001H16.0976H16.0951H16.0926H16.0901H16.0876H16.0851H16.0826H16.0802H16.0777H16.0752H16.0727H16.0703H16.0678H16.0653H16.0629H16.0604H16.0579H16.0555H16.053H16.0506H16.0481H16.0457H16.0433H16.0408H16.0384H16.036H16.0335H16.0311H16.0287H16.0263H16.0239H16.0215H16.0191H16.0167H16.0143H16.0119H16.0095H16.0071H16.0047H16.0024H16C13.3787 21 11.0855 20.385 9.48085 19.323C7.9026 18.2784 7 16.8194 7 15C7 11.3307 10.8097 8 16 8C21.1903 8 25 11.3307 25 15C25 17.4253 23.8213 21.602 17.9844 24.4607V24.4558V24.4451V24.4344V24.4237V24.413V24.4024V24.3917V24.381V24.3704V24.3597V24.3491V24.3385V24.3279V24.3173V24.3067V24.2961V24.2855V24.275V24.2644V24.2539V24.2433V24.2328V24.2223V24.2118V24.2013V24.1909V24.1804V24.1699V24.1595V24.1491V24.1386V24.1282V24.1178V24.1075V24.0971V24.0867V24.0764V24.0661V24.0557V24.0454V24.0351V24.0248V24.0146V24.0043V23.9941V23.9838V23.9736V23.9634V23.9532V23.9431V23.9329V23.9227V23.9126V23.9025V23.8924V23.8823V23.8722V23.8622V23.8521V23.8421V23.8321V23.8221V23.8121V23.8021V23.7922V23.7822V23.7723V23.7624V23.7525V23.7426V23.7327V23.7229V23.7131V23.7033V23.6935V23.6837V23.6739V23.6642V23.6544V23.6447V23.635V23.6254V23.6157V23.6061V23.5964V23.5868V23.5772V23.5677V23.5581V23.5486V23.5391V23.5296V23.5201V23.5106V23.5012V23.4918V23.4824V23.473V23.4636V23.4543V23.4449V23.4356V23.4263V23.4171V23.4078V23.3986V23.3894V23.3802V23.371V23.3619V23.3527V23.3436V23.3345V23.3255V23.3164V23.3074V23.2984V23.2894V23.2805V23.2715V23.2626V23.2537V23.2448V23.236V23.2272V23.2184V23.2096V23.2008V23.1921V23.1833V23.1747V23.166V23.1573V23.1487V23.1401V23.1315V23.123V23.1144V23.1059V23.0974V23.089V23.0805V23.0721V23.0637V23.0554V23.047V23.0387V23.0304V23.0221V23.0139V23.0057V22.9975V22.9893V22.9812V22.9731V22.965V22.9569V22.9489V22.9408V22.9328V22.9249V22.9169V22.909V22.9011V22.8933V22.8855V22.8777V22.8699V22.8621V22.8544V22.8467V22.839V22.8314V22.8238V22.8162V22.8086V22.8011V22.7936V22.7861V22.7786V22.7712V22.7638V22.7565V22.7491V22.7418V22.7345V22.7273V22.7201V22.7129V22.7057V22.6986V22.6915V22.6844V22.6774V22.6703V22.6634V22.6564V22.6495V22.6426V22.6357V22.6289V22.6221V22.6153V22.6086V22.6019V22.5952V22.5885V22.5819V22.5753V22.5688V22.5622V22.5557V22.5493V22.5428V22.5364V22.5301V22.5237V22.5174V22.5112V22.5049V22.4987V22.4926V22.4864V22.4803V22.4742V22.4682V22.4622V22.4562V22.4503V22.4444V22.4385V22.4327V22.4269V22.4211V22.4154V22.4097V22.404V22.3984V22.3928V22.3872V22.3817V22.3762V22.3707V22.3653V22.3599V22.3545V22.3492V22.3439V22.3387V22.3335V22.3283V22.3232V22.3181V22.313V22.308V22.303V22.298V22.2931V22.2882V22.2833V22.2785V22.2738V22.269V22.2643V22.2597V22.255V22.2504V22.2459V22.2414V22.2369V22.2325V22.2281V22.2237V22.2194V22.2151V22.2109V22.2067V22.2025V22.1984V22.1943V22.1902V22.1862V22.1823V22.1783V22.1744V22.1706V22.1668V22.163V22.1593V22.1556V22.1519V22.1483V22.1447V22.1412V22.1377V22.1343V22.1309V22.1275V22.1242V22.1209V22.1177V22.1145V22.1113V22.1082V22.1051V22.1021V22.0991V22.0961V22.0932V22.0904V22.0875V22.0847V22.082V22.0793V22.0767V22.0741V22.0715V22.069V22.0665V22.0641V22.0617V22.0593V22.057V22.0547V22.0525V22.0504V22.0482V22.0461V22.0441V22.0421V22.0402V22.0383V22.0364V22.0346V22.0328V22.0311V22.0294V22.0278V22.0262V22.0246V22.0231V22.0217V22.0203V22.0189V22.0176V22.0163V22.0151V22.0139V22.0128V22.0117V22.0107V22.0097V22.0088V22.0079V22.007V22.0062V22.0055V22.0048V22.0041V22.0035V22.003V22.0024V22.002V22.0016V22.0012V22.0009V22.0006V22.0004V22.0002V22.0001V22L16.9844 22Z" stroke="#A7B1BA" stroke-width="2"/>
<rect id="notification" x="20" y="4" width="8" height="8" rx="4" fill="#EA417F"/>
</g>
</svg>
