<svg width="40" height="40" viewBox="0 0 40 40" fill="none" xmlns="http://www.w3.org/2000/svg">
<g id="main-screen / new-cards / icons / product / credit-card">
<rect width="40" height="40" rx="20" fill="#F4F6F7"/>
<path id="credit-card" fill-rule="evenodd" clip-rule="evenodd" d="M9 19C9 17.8954 9.89543 17 11 17L23 17C24.1046 17 25 17.8954 25 19V27C25 28.1046 24.1046 29 23 29H11C9.89543 29 9 28.1046 9 27V19ZM19.5857 20.9685C19.8444 20.6451 19.792 20.1731 19.4685 19.9144C19.1451 19.6556 18.6731 19.7081 18.4143 20.0315L14.4143 25.0315C14.1556 25.355 14.208 25.8269 14.5315 26.0857C14.8549 26.3444 15.3269 26.292 15.5857 25.9685L19.5857 20.9685ZM15 21C15 21.5523 14.5523 22 14 22C13.4477 22 13 21.5523 13 21C13 20.4477 13.4477 20 14 20C14.5523 20 15 20.4477 15 21ZM21 25C21 25.5523 20.5523 26 20 26C19.4477 26 19 25.5523 19 25C19 24.4477 19.4477 24 20 24C20.5523 24 21 24.4477 21 25ZM15 13C15 11.8954 15.8954 11 17 11H29C30.1046 11 31 11.8954 31 13V21C31 22.1046 30.1046 23 29 23H27L27 17C27 15.8954 26.1046 15 25 15L15 15V13Z" fill="#A7B1BA"/>
</g>
</svg>
