<svg width="40" height="40" viewBox="0 0 40 40" fill="none" xmlns="http://www.w3.org/2000/svg">
<g id="main-screen / new-cards / icons / product / debit-card">
<rect width="40" height="40" rx="20" fill="#F4F6F7"/>
<path id="debit-card" fill-rule="evenodd" clip-rule="evenodd" d="M9 19C9 17.8954 9.89543 17 11 17L23 17C24.1046 17 25 17.8954 25 19V27C25 28.1046 24.1046 29 23 29H11C9.89543 29 9 28.1046 9 27V19ZM19 26L13 26C12.4477 26 12 25.5523 12 25C12 24.4477 12.4477 24 13 24L19 24C19.5523 24 20 24.4477 20 25C20 25.5523 19.5523 26 19 26ZM15 13C15 11.8954 15.8954 11 17 11H29C30.1046 11 31 11.8954 31 13V21C31 22.1046 30.1046 23 29 23H27L27 17C27 15.8954 26.1046 15 25 15L15 15V13Z" fill="#A7B1BA"/>
</g>
</svg>
