<svg width="40" height="40" viewBox="0 0 40 40" fill="none" xmlns="http://www.w3.org/2000/svg">
<g id="main-screen / new-cards / icons / product / deposit">
<rect width="40" height="40" rx="20" fill="#F4F6F7"/>
<path id="safe" fill-rule="evenodd" clip-rule="evenodd" d="M9 13C9 11.8954 9.89543 11 11 11H29C30.1046 11 31 11.8954 31 13V25C31 26.1046 30.1046 27 29 27V28C29 28.5523 28.5523 29 28 29H27C26.4477 29 26 28.5523 26 28V27H14V28C14 28.5523 13.5523 29 13 29H12C11.4477 29 11 28.5523 11 28L11 27C9.89543 27 9 26.1046 9 25V13ZM14 16C14.5523 16 15 16.4477 15 17V21C15 21.5523 14.5523 22 14 22C13.4477 22 13 21.5523 13 21V17C13 16.4477 13.4477 16 14 16ZM21 19C21 17.8954 21.8954 17 23 17C24.1046 17 25 17.8954 25 19C25 20.1046 24.1046 21 23 21C21.8954 21 21 20.1046 21 19ZM23 15C20.7909 15 19 16.7909 19 19C19 21.2091 20.7909 23 23 23C25.2091 23 27 21.2091 27 19C27 16.7909 25.2091 15 23 15Z" fill="#A7B1BA"/>
</g>
</svg>
