<svg width="41" height="40" viewBox="0 0 41 40" fill="none" xmlns="http://www.w3.org/2000/svg">
<g id="main-screen / new-cards / icons / product / investments">
<rect x="0.5" width="40" height="40" rx="20" fill="#F4F6F7"/>
<path id="investments" d="M14.5 27H11.5C11.2348 27 10.9804 26.8946 10.7929 26.7071C10.6054 26.5196 10.5 26.2652 10.5 26L10.5 21C10.5 20.7348 10.6054 20.4804 10.7929 20.2929C10.9804 20.1054 11.2348 20 11.5 20H14.5C14.7652 20 15.0196 20.1054 15.2071 20.2929C15.3946 20.4804 15.5 20.7348 15.5 21V26C15.5 26.2652 15.3946 26.5196 15.2071 26.7071C15.0196 26.8946 14.7652 27 14.5 27ZM28.5 27H25.5C25.2348 27 24.9804 26.8946 24.7929 26.7071C24.6054 26.5196 24.5 26.2652 24.5 26V13C24.5 12.7348 24.6054 12.4804 24.7929 12.2929C24.9804 12.1054 25.2348 12 25.5 12H28.5C28.7652 12 29.0196 12.1054 29.2071 12.2929C29.3946 12.4804 29.5 12.7348 29.5 13V26C29.5 26.2652 29.3946 26.5196 29.2071 26.7071C29.0196 26.8946 28.7652 27 28.5 27ZM21.5 27H18.5C18.2348 27 17.9804 26.8946 17.7929 26.7071C17.6054 26.5196 17.5 26.2652 17.5 26V17C17.5 16.7348 17.6054 16.4804 17.7929 16.2929C17.9804 16.1054 18.2348 16 18.5 16H21.5C21.7652 16 22.0196 16.1054 22.2071 16.2929C22.3946 16.4804 22.5 16.7348 22.5 17V26C22.5 26.2652 22.3946 26.5196 22.2071 26.7071C22.0196 26.8946 21.7652 27 21.5 27Z" fill="#A7B1BA"/>
</g>
</svg>
