<svg width="32" height="32" viewBox="0 0 32 32" fill="none" xmlns="http://www.w3.org/2000/svg">
<g id="tabbars / normal / more">
<g id="lines">
<mask id="path-1-inside-1_3858_2094" fill="white">
<path fill-rule="evenodd" clip-rule="evenodd" d="M9 9H25V11H9V9ZM9 15H21V17H9V15ZM25 21H9V23H25V21Z"/>
</mask>
<path d="M25 9H26V8H25V9ZM9 9V8H8V9H9ZM25 11V12H26V11H25ZM9 11H8V12H9V11ZM21 15H22V14H21V15ZM9 15V14H8V15H9ZM21 17V18H22V17H21ZM9 17H8V18H9V17ZM9 21V20H8V21H9ZM25 21H26V20H25V21ZM9 23H8V24H9V23ZM25 23V24H26V23H25ZM25 8H9V10H25V8ZM26 11V9H24V11H26ZM9 12H25V10H9V12ZM8 9V11H10V9H8ZM21 14H9V16H21V14ZM22 17V15H20V17H22ZM9 18H21V16H9V18ZM8 15V17H10V15H8ZM9 22H25V20H9V22ZM10 23V21H8V23H10ZM25 22H9V24H25V22ZM24 21V23H26V21H24Z" fill="#A7B1BA" mask="url(#path-1-inside-1_3858_2094)"/>
</g>
</g>
</svg>
